<!DOCTYPE svg PUBLIC "-//W3C//DTD SVG 1.1//EN" "http://www.w3.org/Graphics/SVG/1.1/DTD/svg11.dtd">
<!-- Uploaded to: SVG Repo, www.svgrepo.com, Transformed by: SVG Repo Mixer Tools -->
<svg width="800px" height="800px" viewBox="0 0 48.00 48.00" xmlns="http://www.w3.org/2000/svg" fill="#6415ff" stroke="#6415ff" stroke-width="0.00048000000000000007">
<g id="SVGRepo_bgCarrier" stroke-width="0"/>
<g id="SVGRepo_tracerCarrier" stroke-linecap="round" stroke-linejoin="round"/>
<g id="SVGRepo_iconCarrier"> <title>data-storage-multiple</title> <g id="Layer_2" data-name="Layer 2"> <g id="invisible_box" data-name="invisible box"> <rect width="48" height="48" fill="none"/> </g> <g id="icons_Q2" data-name="icons Q2"> <g> <circle cx="38" cy="24" r="2"/> <circle cx="32" cy="24" r="2"/> <circle cx="38" cy="36" r="2"/> <circle cx="32" cy="36" r="2"/> <path d="M44,4H4A2,2,0,0,0,2,6V42a2,2,0,0,0,2,2H44a2,2,0,0,0,2-2V6A2,2,0,0,0,44,4ZM6,20H42v8H6ZM6,8H42v8H6ZM42,40H6V32H42Z"/> <circle cx="38" cy="12" r="2"/> <circle cx="32" cy="12" r="2"/> </g> </g> </g> </g>
</svg>