<?xml version="1.0" encoding="UTF-8"?>
<svg xmlns="http://www.w3.org/2000/svg" xmlns:xlink="http://www.w3.org/1999/xlink" width="356px" height="356px" viewBox="0 0 356 356" version="1.1">
<g id="surface1">
<path style=" stroke:none;fill-rule:evenodd;fill:rgb(39.215686%,8.235294%,100%);fill-opacity:1;" d="M 101.359375 175.527344 C 125.21875 175.527344 144.625 156.121094 144.625 132.265625 C 144.625 108.40625 125.21875 89 101.359375 89 C 77.503906 89 58.097656 108.40625 58.097656 132.265625 C 58.097656 156.121094 77.503906 175.527344 101.359375 175.527344 Z M 311.5 227.445312 L 311.5 190.359375 L 348.582031 190.359375 L 348.582031 165.640625 L 311.5 165.640625 L 311.5 128.554688 L 286.777344 128.554688 L 286.777344 165.640625 L 249.695312 165.640625 L 249.695312 190.359375 L 286.777344 190.359375 L 286.777344 227.445312 Z M 101.359375 197.160156 C 72.4375 197.160156 14.832031 211.621094 14.832031 240.421875 L 14.832031 262.054688 L 187.890625 262.054688 L 187.890625 240.421875 C 187.890625 211.621094 130.285156 197.160156 101.359375 197.160156 Z M 101.359375 221.882812 C 79.234375 221.882812 54.140625 230.164062 43.757812 237.332031 L 158.964844 237.332031 C 148.582031 230.164062 123.488281 221.882812 101.359375 221.882812 Z M 119.902344 132.265625 C 119.902344 122.003906 111.621094 113.722656 101.359375 113.722656 C 91.101562 113.722656 82.820312 122.003906 82.820312 132.265625 C 82.820312 142.523438 91.101562 150.804688 101.359375 150.804688 C 111.621094 150.804688 119.902344 142.523438 119.902344 132.265625 Z M 163.167969 175.527344 C 187.023438 175.527344 206.429688 156.121094 206.429688 132.265625 C 206.429688 108.40625 187.023438 89 163.167969 89 C 160.199219 89 157.234375 89.246094 154.390625 89.863281 C 163.785156 101.484375 169.347656 116.195312 169.347656 132.265625 C 169.347656 148.332031 163.539062 162.917969 154.144531 174.539062 C 157.109375 175.15625 160.078125 175.527344 163.167969 175.527344 Z M 212.609375 240.421875 C 212.609375 223.613281 204.207031 210.511719 191.84375 200.496094 C 219.535156 206.304688 249.695312 219.535156 249.695312 240.421875 L 249.695312 262.054688 L 212.609375 262.054688 Z M 212.609375 240.421875 "/>
</g>
</svg>
