<svg xmlns="http://www.w3.org/2000/svg" width="800px" height="800px" viewBox="0 0 28 28" fill="none" stroke="#6415ff" stroke-width="0.42000000000000004">

<g id="SVGRepo_bgCarrier" stroke-width="0"/>

<g id="SVGRepo_tracerCarrier" stroke-linecap="round" stroke-linejoin="round"/>

<g id="SVGRepo_iconCarrier">

<path clip-rule="evenodd" d="M10 5.15C7.8737 5.15 6.15 6.8737 6.15 9C6.15 11.1263 7.8737 12.85 10 12.85C12.1263 12.85 13.85 11.1263 13.85 9C13.85 6.8737 12.1263 5.15 10 5.15ZM7.85 9C7.85 7.81259 8.81259 6.85 10 6.85C11.1874 6.85 12.15 7.81259 12.15 9C12.15 10.1874 11.1874 11.15 10 11.15C8.81259 11.15 7.85 10.1874 7.85 9Z" fill="#6415ff" fill-rule="evenodd"/>

<path clip-rule="evenodd" d="M4 1H24C25.6569 1 27 2.34314 27 4V24C27 25.6569 25.6569 27 24 27H4C2.34315 27 1 25.6569 1 24V4C1 2.34315 2.34314 1 4 1ZM3 24V23.5908L19.0356 13.3995C19.4086 13.1624 19.8929 13.1983 20.2269 13.4877L25 17.6241V24C25 24.5523 24.5523 25 24 25H4C3.44772 25 3 24.5523 3 24ZM20.8641 11.4L25 14.9842V4C25 3.44772 24.5523 3 24 3H4C3.44772 3 3 3.44772 3 4V21.2216L18.5547 11.3359C19.2602 10.8656 20.1857 10.8913 20.8641 11.4Z" fill="#6415ff" fill-rule="evenodd"/>

</g>

</svg>